<svg width="75" height="64" viewBox="0 0 75 64" fill="none" xmlns="http://www.w3.org/2000/svg">
<g clip-path="url(#clip0_205_19)">
<path d="M38.2491 0C38.984 0.322447 39.7612 0.574239 40.4433 0.984042C41.3978 1.55443 42.044 2.44726 42.5579 3.42488C42.6658 3.62785 42.7698 3.8334 42.897 4.08133C43.8155 3.18208 44.8522 2.62711 46.0752 2.44212C48.2232 2.11582 49.9292 2.94827 51.3217 4.49756C52.8158 6.16761 53.4864 8.14854 53.4517 10.3761C53.4183 12.4316 53.0791 14.4446 52.1953 16.5026C52.5075 16.3305 52.6848 16.2457 52.8543 16.1403C57.7077 13.2178 62.9607 11.7391 68.635 11.8188C70.1547 11.8419 71.6629 12.0141 73.0966 12.5742C74.5302 13.1343 74.818 13.6725 74.3658 15.1435C73.5783 17.6935 72.2654 19.9982 70.8972 22.2681C68.5528 26.1786 66.004 29.9465 62.8181 33.2378C62.2259 33.8493 61.5334 34.3605 60.9091 34.9451C60.7282 35.1033 60.609 35.3203 60.5725 35.5578C60.4338 39.9277 59.3703 44.2186 57.4521 48.1474C55.0562 53.0689 51.9127 57.4406 47.3342 60.5905C43.8476 62.989 40.031 64.397 35.7132 63.9024C33.3296 63.6422 31.0271 62.8846 28.9547 61.6786C24.5535 59.1029 21.2339 55.4622 18.6544 51.0983C16.4421 47.3845 14.9678 43.2786 14.3122 39.0058C14.1414 37.8895 14.1118 36.7513 13.9949 35.6259C13.9731 35.4165 13.905 35.1403 13.756 35.0273C11.3884 33.2365 9.58088 30.9305 7.8466 28.5693C5.15911 24.9158 2.7247 21.1017 0.877375 16.9433C0.559053 16.1981 0.297942 15.4298 0.0963071 14.645C-0.145207 13.7573 0.0462058 13.2024 0.906922 12.8735C1.98988 12.4585 3.13322 12.0783 4.27913 11.9742C10.5328 11.373 16.2957 12.9454 21.6643 16.1147C21.83 16.2123 21.9932 16.3138 22.1589 16.4101C22.1756 16.4204 22.2 16.4101 22.2655 16.4178C22.015 15.5635 21.7131 14.7349 21.5333 13.8806C21.0734 11.7109 20.8396 9.5244 21.5885 7.36619C22.2565 5.43921 23.414 3.89763 25.2626 2.94699C26.2155 2.47418 27.2859 2.29026 28.342 2.41785C29.398 2.54544 30.3938 2.97897 31.2067 3.66511C31.3519 3.79357 31.4957 3.91305 31.6717 4.06463C31.8786 3.68823 32.0571 3.32724 32.2678 2.98424C33.1671 1.51974 34.3901 0.489452 36.1076 0.122042C36.1856 0.0922189 36.2587 0.0510988 36.3247 0L38.2491 0ZM14.7734 33.3521C14.9469 33.8159 15.1794 34.2513 15.2667 34.7241C15.3605 35.2225 15.3027 35.7518 15.3323 36.258C15.3669 36.854 15.3978 37.4527 15.4787 38.0436C16.0958 42.6074 17.6461 46.9952 20.0328 50.9338C22.5147 55.064 25.6313 58.589 29.8771 60.9991C32.2614 62.3531 34.832 63.1316 37.576 63.0609C40.6848 62.9813 43.4982 61.8945 46.0688 60.1653C49.4834 57.8671 52.1324 54.8507 54.2739 51.3693C56.7103 47.438 58.3303 43.0563 59.0374 38.4856C59.3046 36.7757 58.8678 34.9656 59.8557 33.329C59.6874 33.3123 59.6065 33.2969 59.5255 33.2969C58.7072 33.3033 58.5967 33.135 58.9706 32.404C59.1594 32.034 59.3791 31.6808 59.636 31.2299C59.0168 31.3069 58.5158 31.4071 58.0135 31.4174C57.7643 31.4174 57.5125 31.262 57.2607 31.1759C57.348 30.9498 57.3789 30.6723 57.5317 30.5092C58.025 29.9837 58.5595 29.5007 59.18 28.9111C58.2717 29.1217 57.4752 29.3324 56.6672 29.4802C56.3833 29.5315 56.0711 29.4288 55.7679 29.3967C55.8707 29.1115 55.9067 28.7736 56.0865 28.5526C56.6106 27.9103 57.199 27.3117 57.7501 26.686C58.5209 25.8073 59.2917 24.9196 59.9751 24.127C58.3796 24.7514 56.5824 25.4528 54.789 26.1619C54.2752 26.3662 53.7818 26.6359 53.2564 26.8042C52.7516 26.9648 52.5126 26.6938 52.7002 26.1915C52.835 25.8322 53.0137 25.4909 53.232 25.1753C57.2829 19.325 62.7813 15.6239 69.7269 14.0721C70.7238 13.8498 71.74 13.7162 72.7471 13.5415C71.8713 13.2643 70.9658 13.0918 70.0494 13.0276C67.4882 12.8887 64.92 13.1 62.416 13.6558C57.5908 14.7272 53.2654 16.7891 49.5695 20.1086C49.2188 20.4234 49.1237 20.6687 49.3125 21.1364C50.8105 24.8618 50.6113 28.5141 48.6934 32.0559C47.8224 33.6643 46.6597 35.0106 45.0501 35.9265C44.6454 36.1565 44.2433 36.2785 44.0455 35.6041C43.8515 35.9432 43.6909 36.24 43.5175 36.529C42.3485 38.4791 40.9186 40.2044 38.9518 41.3863C38.1695 41.8552 37.5798 42.3292 37.3486 43.2812C37.1431 44.1265 36.6048 44.3012 35.8969 43.7796C34.9412 43.1004 34.0494 42.3354 33.2326 41.4942C31.5625 39.7188 30.3447 37.6403 29.3863 35.3973C29.3099 35.1925 29.1761 35.0141 29.0009 34.8834C28.541 34.6008 27.9642 34.4633 27.5814 34.1126C24.6627 31.4148 23.8726 27.9463 24.1617 24.1373C24.2702 22.8653 24.7134 21.6447 25.4463 20.5994C20.6443 15.1871 7.47405 11.2356 1.93721 13.5158C2.27379 13.571 2.60266 13.6276 2.93282 13.679C9.30725 14.681 14.6801 17.5547 19.0513 22.3002C20.079 23.4089 20.9128 24.691 21.7941 25.923C21.9521 26.1439 21.9071 26.5113 21.9559 26.8119C21.6515 26.7914 21.3226 26.8363 21.0451 26.7374C20.5248 26.5499 20.0354 26.2775 19.5331 26.0424C17.8176 25.2275 16.0218 24.5937 14.1748 24.1514C14.3932 24.357 14.487 24.4379 14.5743 24.5265C15.859 25.8407 17.1552 27.1421 18.4116 28.482C18.6056 28.6901 18.6094 29.0768 18.7019 29.3812C18.4 29.4056 18.0878 29.493 17.8026 29.4429C17.0319 29.3144 16.2778 29.114 15.4003 28.9175C16.0285 29.5084 16.5655 29.9696 17.0447 30.4848C17.222 30.6762 17.2644 30.9986 17.3684 31.2555C17.0909 31.3198 16.8096 31.4495 16.536 31.4354C16.0388 31.4123 15.5442 31.3069 14.916 31.2119C15.1383 31.5806 15.2886 31.8298 15.4299 32.0803C16.0504 33.1324 15.9605 33.3136 14.7734 33.3521Z" fill="#F08200"/>
<path d="M29.4865 47.1711C29.43 47.8455 29.3901 48.5482 29.3028 49.2458C29.2604 49.5823 29.182 49.9626 28.6605 49.7596C28.5705 49.7262 28.4151 49.8046 28.3123 49.8688C26.6024 50.9338 24.8438 50.8105 23.1082 49.9973C20.3488 48.7062 18.7879 46.4298 18.2188 43.5008C17.9961 42.3523 17.9381 41.1779 18.0467 40.013C18.2586 37.7854 19.8285 36.687 21.8068 36.159C24.5958 35.4229 26.7797 36.5444 27.95 39.1934C28.7697 41.0484 29.164 43.0062 29.3246 45.0167C29.3747 45.7335 29.4287 46.4349 29.4865 47.1711ZM27.2551 41.5186C27.133 40.6759 26.9365 39.9449 26.3995 39.3424C25.8214 38.7001 25.1148 38.6911 24.5098 39.309C23.6182 40.2198 23.473 42.089 24.213 43.1206C24.8553 44.0095 26.0282 44.0583 26.632 43.1462C26.9442 42.6671 27.0546 42.0594 27.2551 41.5135V41.5186Z" fill="#F08200"/>
<path d="M56.6993 40.7234C56.4809 44.594 55.4301 47.5474 52.4356 49.459C50.4636 50.7218 48.3838 51.1458 46.2294 49.8328C46.1922 49.8097 46.1498 49.7699 46.1164 49.7763C45.0887 49.9677 45.2171 49.1443 45.1876 48.6201C45.0103 45.2569 45.3636 41.9682 46.7844 38.8658C47.5552 37.1816 48.8398 36.1423 50.7231 36.0126C52.943 35.8597 54.8713 36.5162 56.0454 38.5048C56.5002 39.282 56.5734 40.2763 56.6993 40.7234ZM47.2854 41.3927C47.5179 42.035 47.622 42.6478 47.9277 43.1231C48.5405 44.0609 49.7519 44.0005 50.384 43.0717C51.0764 42.0504 50.9467 40.2738 50.1129 39.3578C49.4706 38.65 48.6484 38.6281 48.1179 39.4297C47.7402 40.0143 47.5616 40.7234 47.2854 41.3978V41.3927Z" fill="#F08200"/>
<path d="M37.2972 52.6823C38.0616 52.8557 38.8311 52.9392 39.5338 53.2102C40.4331 53.5494 40.6605 54.3433 40.117 55.1372C38.5562 57.4265 35.9766 57.3905 34.4492 55.1218C33.9122 54.3253 34.155 53.5365 35.0581 53.1948C35.7621 52.9405 36.5316 52.8531 37.2972 52.6823ZM35.5591 54.2958C36.0871 54.7608 36.5547 54.7621 37.0917 54.3061C36.5881 53.9669 36.1231 53.9412 35.5591 54.2958Z" fill="#F08200"/>
</g>
<defs>
<clipPath id="clip0_205_19">
<rect width="74.5637" height="64" fill="white"/>
</clipPath>
</defs>
</svg>
